<svg xmlns="http://www.w3.org/2000/svg" width="1077" height="299" viewBox="0 0 1077 299">
  <g fill="none" fill-rule="evenodd" transform="translate(1 1)">
    <path fill="#FFF" d="M45.5998203,136.070404 C58.4102768,124.734446 81.9021401,106.23069 117.902437,86.1731343 C144.010415,71.6279668 176.70122,56.263562 216.663974,42.2243318 C222.076993,40.3233624 227.432585,38.5070688 232.726496,36.7691001 C234.70028,36.123448 236.665557,35.4883802 238.622326,34.863897 C243.877953,33.1852013 249.071898,31.5869476 254.204163,30.0670189 C365.050876,-2.80831969 445.893088,-0.0775285259 472.345628,0.144745173 C479.081593,0.199784375 496.222465,1.84672664 502.747864,6.65630611 C503.734756,7.38028331 504.723775,8.11696185 505.712795,8.86210797 C506.940029,9.78295615 508.167264,10.7165057 509.398752,11.6627566 C539.296907,34.6289219 570.964662,64.8771971 593.171864,85.2184159 C594.396971,86.3403688 595.594429,87.4326853 596.759983,88.4932484 L633.925833,89.0753938 L633.151633,84.8289077 C633.151633,84.8289077 771.320798,83.1396276 831.508462,86.5181878 C885.387672,89.5368763 918.291169,92.3205898 968.316395,113.972165 C969.671245,114.558544 971.03673,115.157625 972.417103,115.77364 C976.030745,117.380362 979.731591,119.08446 983.540909,120.892286 C984.563959,121.379171 985.59339,121.872407 986.627075,122.371994 C988.294582,123.176413 989.925932,123.966014 991.529632,124.73868 C992.818547,125.363163 994.08832,125.977062 995.338951,126.582493 C1049.27133,152.723997 1065.29132,161.85627 1062.47102,170.679478 C1061.76488,172.883163 1060.47596,176.839635 1058.88503,181.600526 L1057.51316,188.730219 L1057.54294,188.738687 L1064.26827,174.068623 C1065.42744,171.547404 1065.82305,171.38652 1068.60081,171.82895 C1069.85144,172.030055 1070.5831,172.123198 1071.6019,172.377226 C1074.11379,173.001709 1074.23077,173.73627 1074.41794,176.44801 C1074.84971,182.785985 1074.84546,196.446292 1073.73095,200.172022 C1073.1503,202.106862 1070.51717,210.811524 1068.15628,215.635921 C1066.07615,219.890875 1065.22113,220.144902 1061.59685,218.536064 L1055.12463,215.663441 C1053.52305,215.096114 1052.64889,214.115993 1052.96155,212.456349 L1055.51598,199.149563 C1054.54823,199.270226 1053.60175,199.371837 1052.7127,199.45863 C1050.39435,205.908801 1048.08877,211.988516 1046.26812,216.057183 C1045.32164,218.18466 1041.708,224.62848 1037.25422,226.523099 C1017.06121,235.117682 977.721648,239.751559 959.730008,240.312536 C957.48185,240.382393 955.654824,240.594082 954.291466,240.509407 C952.285778,240.38451 951.305266,239.618195 951.517959,236.802728 C955.6846,182.136099 920.779669,151.830668 855.963821,152.918751 C812.149209,153.655429 771.437778,163.922357 757.774426,199.511552 C754.205449,208.81106 752.482642,219.842186 753.035642,232.882243 C753.333411,239.973833 755.334845,240.221509 748.120323,240.185522 L369.121807,239.44461 C369.121807,239.44461 369.121807,228.642108 369.36853,217.596164 C370.493672,167.049007 303.357351,162.357974 266.261689,162.357974 C246.036779,162.357974 195.98603,168.5393 184.122054,176.596192 C169.963128,186.211117 169.573902,208.976178 170.039698,224.869806 L170.069475,226.533683 C96.1014773,211.391552 52.8292312,201.418872 42.4158167,195.686327 C34.0144713,191.058801 29.1310564,182.669556 27.0807027,178.399784 C26.7382681,177.690625 26.2937413,176.670283 25.9002605,175.745201 C24.479476,175.550447 23.0395492,175.307005 21.6272724,175.01699 C21.6272724,175.01699 17.0586421,180.285935 14.7743269,180.73895 C13.1897694,181.056484 7.28543142,181.462928 3.81854712,181.683084 C-0.339587127,181.947696 0.562228177,181.280875 0.207032055,176.841752 C-0.0907371494,173.143541 -0.243875597,161.991752 1.0195166,154.726577 C1.66184731,151.051652 2.84016259,148.090119 5.74553925,148.081652 C7.91925444,148.075301 11.4031541,147.897482 12.2432887,148.187496 C14.0639347,148.816213 19.5046034,160.230497 21.5826071,162.372792 C22.3206493,162.857561 23.10123,163.314809 23.9200953,163.746655 L24.0349492,148.181146 L28.3504757,148.181146 L28.3504757,147.569364 L33.6571483,147.569364 C34.0144713,147.177739 34.4526175,146.701438 34.8269559,146.309813 C36.5178596,144.540091 40.0591862,140.977361 45.5998203,136.070404"/>
    <path fill="#565653" d="M12.2432887,148.187496 C11.4031541,147.897482 7.91925444,148.075301 5.74553925,148.081652 C2.84016259,148.090119 1.66184731,151.051652 1.0195166,154.726577 C-0.243875597,161.991752 -0.0907371494,173.143541 0.207032055,176.841752 C0.562228177,181.280875 -0.339587127,181.947696 3.81854712,181.683084 C7.28543142,181.462928 13.1897694,181.056484 14.7743269,180.73895 C17.0586421,180.285935 21.6272724,175.01699 21.6272724,175.01699 C23.0395492,175.307005 24.479476,175.550447 25.9002605,175.745201 C25.9087682,175.747318 25.9194028,175.747318 25.9279105,175.749435 C27.2678719,175.931488 28.5886911,176.066969 29.8499563,176.149528 C37.9662941,176.687218 149.083126,171.179064 183.690289,169.436862 C187.429419,169.248459 221.347458,167.142151 221.402758,163.333861 C221.445297,160.247432 210.108798,161.208501 204.604321,161.147112 C184.541058,160.920604 100.576523,160.368095 68.5344298,161.299528 C58.0912384,170.554581 36.5306211,170.376762 23.9200953,163.746655 C23.10123,163.314809 22.3206493,162.857561 21.5826071,162.372792 C19.5046034,160.230497 14.0639347,148.816213 12.2432887,148.187496"/>
    <path fill="#EAEBE7" d="M28.3504757 148.181146L24.0349492 148.181146 24.0349492 163.769941 28.3504757 163.769941 28.3504757 164.38384 56.4683963 164.38384C68.0984106 164.1658 69.6659528 149.887361 57.0043808 149.887361L41.2991822 149.887361 38.9553132 147.569364 28.3504757 147.569364 28.3504757 148.181146M216.663974 42.2243318C179.351366 55.3321294 148.381242 69.5936333 123.185713 83.268758 124.247048 84.6722576 127.411909 87.1490217 136.264162 86.0715235 148.351465 84.5960495 223.831704 44.580433 227.036977 42.1269547 229.270246 40.4143888 231.386534 38.1027423 232.464884 36.8580096 227.25605 38.5663418 221.987662 40.3529989 216.663974 42.2243318M267.663331 48.2257217C251.073333 53.2554579 237.405726 61.6087152 234.317434 69.7651016 231.5418 77.1001336 233.241211 86.6346169 262.016351 87.3839968 284.08743 87.9619084 383.606152 90.4831272 383.606152 90.4831272L361.900904 26.4767694C332.194172 29.9950445 289.032525 41.7437972 267.663331 48.2257217M371.457168 25.0161137L395.200008 94.676691 507.741879 94.676691C507.741879 94.676691 489.34825 42.2052797 483.1823 29.1080666 479.804747 21.9381522 472.74549 20.22982 465.19066 20.1070403 434.146093 19.5989861 400.785308 20.9199269 371.457168 25.0161137M493.942403 24.1714736C493.327723 27.8527494 508.741533 79.1005969 510.594083 81.8631415 512.444505 84.6235691 517.378967 93.4531272 531.410277 94.2215591 545.437333 94.9878742 573.753058 92.2719013 593.171864 85.2184159 570.962535 64.8771971 539.296907 34.6289219 509.398752 11.6627566 511.385298 14.9354722 494.791046 19.1099839 493.942403 24.1714736"/>
    <path fill="#565653" d="M410.420268 115.511146C407.697807 115.511146 405.487934 117.710597 405.487934 120.420219 405.487934 123.134075 407.697807 125.333526 410.420268 125.333526 412.334499 125.333526 413.995626 124.245444 414.812364 122.659891 417.224295 122.465137 420.065864 122.219578 423.132887 122.219578 432.070217 122.219578 439.395339 125.769606 439.474035 123.703519 439.552731 121.637432 432.225482 117.088231 423.288152 117.088231 420.014818 117.088231 416.958429 117.21101 414.401868 117.522193 413.504307 116.302863 412.055872 115.511146 410.420268 115.511146L410.420268 115.511146zM187.586811 174.737561C182.92885 185.351659 180.055378 197.599998 180.055378 209.924546 180.055378 216.478444 180.784912 222.862992 182.17592 229.00198 183.928504 236.783676 186.736042 244.169514 190.439015 251.002842 192.593588 254.980483 195.052311 258.76972 197.78328 262.340918 213.686282 283.152087 238.830765 296.585886 267.127347 296.585886 295.526021 296.585886 320.753453 283.050476 336.647948 262.110176 338.964167 259.059734 341.082582 255.848409 342.984051 252.499485 350.124132 239.925144 354.199316 225.396912 354.199316 209.924546 354.199316 199.295629 351.804401 188.099385 348.288597 178.694032 325.685788 164.26106 289.883295 162.357974 266.261689 162.357974 247.621337 162.357974 203.657841 167.607867 187.586811 174.737561"/>
    <path fill="#EAEBE7" d="M220.386089,209.924546 C220.386089,184.229706 241.310757,163.401602 267.127347,163.401602 C292.939683,163.401602 313.868604,184.229706 313.868604,209.924546 C313.868604,235.615151 292.939683,256.445372 267.127347,256.445372 C241.310757,256.445372 220.386089,235.615151 220.386089,209.924546"/>
    <path fill="#363734" d="M56.9682231 208.696748C48.201047 204.583626 38.8638555 203.192828 29.1097872 202.68054L29.3224795 212.869143C29.3224795 212.869143 39.7486554 213.233248 45.912478 214.952165 52.0826813 216.671082 54.3095695 220.650839 58.2550115 223.108551 62.2025804 225.564146 146.754146 254.112557 146.754146 254.112557L148.287657 249.984617C166.766363 256.752322 178.141147 261.877318 197.78328 262.340918 195.052311 258.76972 192.593588 254.980483 190.439015 251.002842 186.736042 244.169514 183.928504 236.783676 182.17592 229.00198 180.784912 222.862992 180.055378 216.478444 180.055378 209.924546 180.055378 197.599998 182.92885 185.351659 187.586811 174.737561 186.2192 175.345109 185.053646 175.965358 184.122054 176.596192 169.963128 186.211117 169.573902 208.976178 170.039698 224.869806 170.056713 225.430782 170.073728 225.983291 170.092871 226.525216L181.790947 228.921538C177.809347 228.112885 173.910697 227.31905 170.092871 226.537917 170.084363 226.5358 170.077982 226.533683 170.069475 226.533683 165.354087 225.56838 160.764187 224.624246 156.299776 223.699164 150.446484 222.490419 144.810138 221.315543 139.390739 220.174538L137.04687 232.520255 156.299776 223.699164 137.04687 232.520255C115.094899 224.624246 93.0153122 216.810796 70.2891412 209.433427 63.5191456 207.233975 63.4021649 208.453305 56.9682231 208.696748M342.984051 252.499485C341.082582 255.848409 338.964167 259.059734 336.647948 262.110176L391.243932 262.131345 391.243932 263.119934C391.243932 264.30116 392.213809 265.266463 393.402758 265.266463L527.471216 265.266463C528.660166 265.266463 529.632169 264.30116 529.632169 263.119934L529.632169 261.48781 651.583547 260.444182C670.796041 259.246021 682.311202 246.688615 687.80079 240.066976L670.021841 240.033106 373.001314 239.453077 369.121807 239.44461C369.121807 239.44461 369.121807 228.642108 369.36853 217.596164 369.776899 199.236356 361.179877 186.926627 348.288597 178.694032 351.804401 188.099385 354.199316 199.295629 354.199316 209.924546 354.199316 225.396912 350.124132 239.925144 342.984051 252.499485"/>
    <path fill="#EAEBE7" d="M975.686183 130.21508C979.971933 142.203042 998.529335 169.618915 1008.15366 166.432992 1013.6475 164.616698 1010.53156 155.852764 1006.79668 148.181146 1001.84946 138.017945 985.850748 122.835593 983.540909 120.892286 979.731591 119.08446 976.030745 117.380362 972.417103 115.77364 972.417103 115.77364 972.753157 122.007888 975.686183 130.21508M978.153414 174.623248C974.871572 174.794717 970.630488 177.696976 970.804895 180.963341 970.975049 184.229706 975.611741 186.666249 978.893583 186.492664L1000.84343 185.336841C1004.12102 185.163256 1008.3621 182.260996 1008.18769 178.996748 1008.01754 175.728266 1003.0533 173.310775 999.771458 173.482243L978.153414 174.623248"/>
    <path fill="#565653" d="M1064.26827 174.068623L1057.54294 188.738687 1057.51316 188.730219C1057.19412 188.645543 1056.87508 188.562985 1056.55392 188.48466 1052.33836 187.438915 1048.04623 186.844068 1045.579 186.723405 1036.4311 186.274624 1022.15519 186.58369 1006.73075 186.983783 1006.51806 187.868644 1003.37234 189.653184 998.903673 189.784432L975.499014 190.461837C972.936072 190.538045 971.045238 189.170533 970.226372 188.357646 955.354927 189.42456 946.241063 190.741267 946.241063 193.656228 946.241063 197.604232 965.674757 198.05513 988.63489 198.793926 1010.04024 199.477682 1034.35522 199.964567 1047.42304 199.814268 1048.3759 199.803683 1050.3433 199.689371 1052.7127 199.45863L1055.51598 199.149563 1052.96155 212.456349C1052.64889 214.115993 1053.52305 215.096114 1055.12463 215.663441L1061.59685 218.536064C1065.22113 220.144902 1066.07615 219.890875 1068.15628 215.635921 1070.51717 210.811524 1073.1503 202.106862 1073.73095 200.172022 1074.84546 196.446292 1074.84971 182.785985 1074.41794 176.44801 1074.23077 173.73627 1074.11379 173.001709 1071.6019 172.377226 1070.5831 172.123198 1069.85144 172.030055 1068.60081 171.82895 1065.82305 171.38652 1065.42744 171.547404 1064.26827 174.068623M787.374812 166.981267C778.146093 180.307104 772.86069 196.289642 772.86069 213.696848 772.86069 223.136071 774.447374 232.204838 777.378274 240.653355 788.6063 273.101082 819.550901 296.4123 855.963821 296.4123 891.996022 296.4123 922.670503 273.590084 934.189918 241.675814 937.350525 232.937283 939.071206 223.517112 939.071206 213.696848 939.071206 198.569535 935.306552 184.943099 928.183488 172.743448 925.167511 170.247632 921.868653 167.982557 918.299677 165.946107 902.590224 156.974717 881.618765 152.489022 855.963821 152.918751 834.337269 153.282856 813.467902 155.967076 796.233445 162.874496 793.157915 164.106527 790.199365 165.471923 787.374812 166.981267"/>
    <path fill="#EAEBE7" d="M808.218656,213.696848 C808.218656,187.449499 829.596358,166.172614 855.963821,166.172614 C882.337665,166.172614 903.715367,187.449499 903.715367,213.696848 C903.715367,239.946313 882.337665,261.221082 855.963821,261.221082 C829.596358,261.221082 808.218656,239.946313 808.218656,213.696848"/>
    <path fill="#363734" d="M757.774426 199.511552C754.205449 208.813177 752.482642 219.842186 753.035642 232.882243 753.250461 238.017824 754.360715 239.563156 752.218903 240.011937 760.567076 240.198223 768.959913 240.420497 777.378274 240.653355 774.447374 232.204838 772.86069 223.136071 772.86069 213.696848 772.86069 196.289642 778.146093 180.307104 787.374812 166.981267 773.941167 174.163883 763.491595 184.621331 757.774426 199.511552M939.071206 213.696848C939.071206 223.517112 937.350525 232.937283 934.189918 241.675814 940.923756 241.364631 947.627817 240.979357 954.291466 240.509407 952.285778 240.38451 951.305266 239.618195 951.517959 236.802728 953.65977 208.686164 945.46899 187.013419 928.183488 172.743448 935.306552 184.943099 939.071206 198.569535 939.071206 213.696848"/>
    <path stroke="#1B1A19" stroke-width="1.768" d="M856.008486,208.768722 C858.692663,208.768722 860.870632,210.93642 860.870632,213.607938 C860.870632,216.28369 858.692663,218.451388 856.008486,218.451388 C853.322183,218.451388 851.142087,216.28369 851.142087,213.607938 C851.142087,210.93642 853.322183,208.768722 856.008486,208.768722 Z M980.733371,177.006869 L997.43397,176.327347 C999.969262,176.225736 1003.80198,177.663106 1003.93597,179.606413 C1004.06997,181.547603 1000.79663,183.274988 998.261343,183.378715 L981.305514,184.066705 C978.772348,184.168316 975.188483,182.720362 975.056614,180.777055 C974.920491,178.835864 978.198079,177.10848 980.733371,177.006869 Z M978.153414,174.621131 L999.773585,173.482243 C1003.0533,173.308658 1008.01754,175.728266 1008.18982,178.994631 C1008.3621,182.260996 1004.12314,185.163256 1000.84343,185.334724 L978.893583,186.490547 C975.611741,186.666249 970.977176,184.229706 970.804895,180.961224 C970.630488,177.696976 974.871572,174.794717 978.153414,174.621131 Z M995.338951,126.582493 L1023.69296,151.805265 L995.338951,126.582493 Z M972.41923,115.77364 C972.41923,115.77364 972.753157,122.007888 975.68831,130.21508 C979.971933,142.203042 998.529335,169.618915 1008.15579,166.432992 C1013.6475,164.614581 1010.53156,155.850647 1006.79668,148.181146 C1001.85159,138.017945 985.850748,122.835593 983.540909,120.892286 L972.41923,115.77364 Z M968.316395,113.972165 C968.316395,113.972165 967.837838,121.77503 971.240914,131.292578 C976.211533,145.192094 992.071997,172.991124 1008.87894,170.658309 C1017.98643,169.392407 1017.34835,160.28977 1013.02006,151.394588 C1007.2795,139.609849 993.928801,126.751844 991.251005,124.501588 L968.316395,113.972165 Z M373.001314,239.45096 L373.035345,252.425394 L373.001314,239.45096 Z M391.243932,262.129228 L336.647948,262.110176 L391.243932,262.129228 Z M529.632169,252.040119 L529.632169,263.117817 C529.632169,264.299043 528.660166,265.266463 527.471216,265.266463 L393.402758,265.266463 C392.213809,265.266463 391.243932,264.299043 391.243932,263.117817 L391.243932,252.040119 L529.632169,252.040119 Z M529.632169,261.485693 L651.583547,260.444182 C670.796041,259.246021 682.311202,246.686499 687.802917,240.066976 L529.632169,261.485693 Z M934.192045,241.675814 C940.925883,241.364631 947.627817,240.979357 954.293593,240.509407 L934.192045,241.675814 Z M752.218903,240.011937 C760.569203,240.198223 768.959913,240.420497 777.380401,240.653355 L752.218903,240.011937 Z M928.185614,172.743448 C935.308679,184.943099 939.071206,198.567418 939.071206,213.696848 C939.071206,259.377268 901.862817,296.410184 855.965948,296.410184 C810.069079,296.410184 772.86069,259.377268 772.86069,213.696848 C772.86069,196.289642 778.146093,180.307104 787.374812,166.981267 L928.185614,172.743448 Z M918.301804,165.946107 C928.328118,179.07719 934.549368,195.92977 934.549368,213.696848 C934.549368,256.892037 899.367936,291.90967 855.965948,291.90967 C812.563959,291.90967 777.382528,256.892037 777.382528,213.696848 C777.382528,194.287062 784.473689,176.545387 796.233445,162.874496 L918.301804,165.946107 Z M1055.51598,199.147447 L1052.96155,212.456349 C1052.64889,214.115993 1053.52518,215.096114 1055.12675,215.663441 L1061.59898,218.536064 C1065.22113,220.144902 1066.07828,219.890875 1068.15841,215.635921 C1070.51717,210.811524 1073.1503,202.104745 1073.73095,200.172022 C1074.84546,196.444175 1074.85184,182.785985 1074.41794,176.44801 C1074.2329,173.73627 1074.11592,173.001709 1071.6019,172.377226 C1070.5831,172.123198 1069.85357,172.027938 1068.60081,171.82895 C1065.82518,171.38652 1065.42744,171.547404 1064.27039,174.066506 L1057.54294,188.738687 L1055.51598,199.147447 Z M1039.92351,194.168516 L1068.14565,194.176983 L1039.92351,194.168516 Z M946.241063,193.654111 C946.241063,197.604232 965.674757,198.05513 988.63489,198.791809 C1010.04024,199.477682 1034.35522,199.964567 1047.42517,199.814268 C1051.15579,199.77193 1070.5278,198.131338 1068.14565,194.176983 C1065.37214,189.576976 1051.03243,186.988017 1045.579,186.723405 C1036.4311,186.274624 1022.15519,186.58369 1006.73075,186.983783 C1006.51806,187.868644 1003.37234,189.653184 998.9058,189.782315 L975.499014,190.461837 C972.938199,190.535928 971.045238,189.170533 970.226372,188.357646 C955.354927,189.42456 946.241063,190.741267 946.241063,193.654111 Z M170.092871,226.5358 C169.563267,210.608302 169.461175,186.551937 184.122054,176.596192 C195.98603,168.5393 246.036779,162.357974 266.261689,162.357974 C303.357351,162.357974 370.495799,167.049007 369.36853,217.594047 C369.121807,228.642108 369.121807,239.44461 369.121807,239.44461 L748.120323,240.185522 C755.334845,240.221509 753.333411,239.973833 753.035642,232.882243 C750.370607,169.938566 800.697857,153.848067 855.965948,152.918751 C920.779669,151.828551 955.6846,182.133983 951.520085,236.802728 C951.160635,241.523398 954.163851,240.486121 959.732135,240.312536 C977.721648,239.749442 1017.06334,235.117682 1037.25422,226.523099 C1041.71012,224.626363 1045.32377,218.18466 1046.27025,216.057183 C1048.08877,211.986399 1050.39435,205.908801 1052.7127,199.45863 L170.092871,226.5358 Z M757.774426,199.511552 L633.577018,198.302806 L633.925833,89.0753938 L633.151633,84.8289077 C633.151633,84.8289077 771.320798,83.1396276 831.508462,86.5160709 C891.691872,89.8903973 925.701369,92.9683589 986.629202,122.371994 C1047.55916,151.773512 1065.43595,161.396905 1062.47102,170.679478 C1061.44584,173.882336 1059.1913,180.783405 1056.55392,188.48466 L757.774426,199.511552 Z M410.420268,115.511146 C412.055872,115.511146 413.504307,116.302863 414.401868,117.522193 C409.975742,118.062001 407.049096,119.160668 407.100142,121.150547 C407.149061,123.214517 410.196942,123.028231 414.814491,122.657774 C413.995626,124.243327 412.336626,125.331409 410.420268,125.331409 C407.697807,125.331409 405.487934,123.131958 405.487934,120.420219 C405.487934,117.710597 407.697807,115.511146 410.420268,115.511146 Z M423.288152,117.086114 C432.227609,117.086114 439.552731,121.637432 439.474035,123.703519 C439.395339,125.769606 432.072343,122.219578 423.132887,122.219578 C414.19343,122.219578 407.176711,124.289898 407.100142,121.150547 C407.021446,118.011196 414.346568,117.086114 423.288152,117.086114 Z M366.688607,21.6015663 C366.688607,21.6015663 391.190759,92.8349946 392.11597,96.5183874 C393.041182,100.20178 397.358835,145.005807 398.28192,156.051752 C399.053993,165.256 403.675796,186.596392 406.623711,194.176983 C407.976434,197.659271 409.441884,197.051723 413.081049,197.191438 C435.75192,198.061481 550.235671,198.095351 568.09757,198.095351 C571.143323,198.095351 571.870731,197.718544 571.857969,194.33575 C571.800542,180.656392 571.530423,121.709407 571.25605,119.535358 C570.949773,117.079763 570.949773,110.942892 564.473293,110.019927 C557.99894,109.101196 516.606894,110.710034 516.606894,110.710034 L366.688607,21.6015663 Z M371.457168,25.0161137 L395.200008,94.676691 L507.741879,94.676691 C507.741879,94.676691 489.34825,42.2052797 483.1823,29.1080666 C479.804747,21.9360353 472.74549,20.22982 465.19066,20.1070403 C434.146093,19.5989861 400.787435,20.9199269 371.457168,25.0161137 Z M361.900904,26.4767694 C332.194172,29.9950445 289.032525,41.7437972 267.663331,48.2236048 C251.073333,53.253341 237.405726,61.6087152 234.319561,69.7629847 C231.5418,77.1001336 233.243338,86.6325 262.016351,87.3839968 C284.089557,87.9619084 383.606152,90.4810103 383.606152,90.4810103 L361.900904,26.4767694 Z M505.712795,8.85999107 C503.507175,16.866078 482.080554,19.8106753 477.669316,18.891944 L505.712795,8.85999107 Z M516.606894,110.710034 C516.606894,110.710034 488.856931,30.0013952 486.081296,25.7041037 C483.305662,21.4089291 478.062797,17.4185869 466.964513,16.4977388 C460.562475,15.9663988 415.29943,15.8415021 366.688607,21.6015663 C331.005222,25.8290003 295.608971,34.7982733 269.941266,42.5842035 C250.014125,48.6258143 233.598534,58.6577673 229.891308,68.4547452 C226.554166,77.2673681 227.470869,90.2502691 263.158509,90.4556076 C289.670602,90.6080239 388.649086,94.4438328 388.649086,94.4438328 L363.50673,21.9910745 L516.606894,110.710034 Z M633.925833,89.0753938 L596.759983,88.4911315 L633.925833,89.0753938 Z M557.012048,98.3981878 C573.448908,96.0378528 581.897045,95.2482519 596.759983,88.4911315 L557.012048,98.3981878 Z M509.398752,11.6627566 C511.385298,14.9354722 494.791046,19.1099839 493.942403,24.1714736 C493.327723,27.8527494 508.74366,79.1005969 510.594083,81.8631415 C512.444505,84.6235691 517.378967,93.4531272 531.410277,94.2215591 C545.437333,94.9878742 573.753058,92.2719013 593.176117,85.2141821 L509.398752,11.6627566 Z M116.547587,119.300383 C116.547587,119.300383 212.129375,92.9112028 259.612928,92.9112028 C307.096482,92.9112028 336.69474,97.8202762 353.9611,102.115451 C371.229587,106.412742 413.823345,109.094845 472.839074,103.502015 C531.854804,97.9134194 757.874391,90.4556076 772.05884,90.4556076 C786.241162,90.4556076 830.642804,87.3861137 865.175524,89.8417088 L116.547587,119.300383 Z M267.055031,203.059464 C270.885619,203.059464 273.990927,206.150126 273.990927,209.964767 C273.990927,213.77729 270.885619,216.867953 267.055031,216.867953 C263.222316,216.867953 260.117009,213.77729 260.117009,209.964767 C260.117009,206.150126 263.222316,203.059464 267.055031,203.059464 Z M267.055031,201.664432 C271.657692,201.664432 275.390442,205.381695 275.390442,209.964767 C275.390442,214.547839 271.657692,218.262985 267.055031,218.262985 C262.448116,218.262985 258.717494,214.547839 258.717494,209.964767 C258.717494,205.381695 262.448116,201.664432 267.055031,201.664432 Z M267.055031,196.171096 C274.709827,196.171096 280.914061,202.343954 280.914061,209.964767 C280.914061,217.583462 274.709827,223.760554 267.055031,223.760554 C259.398109,223.760554 253.193875,217.583462 253.193875,209.964767 C253.193875,202.343954 259.398109,196.171096 267.055031,196.171096 Z M267.055031,192.980939 C276.4773,192.980939 284.117207,200.584816 284.117207,209.964767 C284.117207,219.3426 276.4773,226.946477 267.055031,226.946477 C257.630636,226.946477 249.992856,219.3426 249.992856,209.964767 C249.992856,200.584816 257.630636,192.980939 267.055031,192.980939 Z M267.055031,188.025294 C279.227411,188.025294 289.096333,197.847675 289.096333,209.964767 C289.096333,222.079742 279.227411,231.902122 267.055031,231.902122 C254.880525,231.902122 245.011602,222.079742 245.011602,209.964767 C245.011602,197.847675 254.880525,188.025294 267.055031,188.025294 Z M288.534825,184.04977 L266.32337,200.091581 L288.534825,184.04977 Z M288.964464,184.411759 L276.951603,208.965593 L288.964464,184.411759 Z M276.951603,208.965593 L293.773437,189.437261 L276.951603,208.965593 Z M300.24779,203.855415 L272.870038,201.933277 L300.24779,203.855415 Z M300.343501,204.405807 L275.279842,215.532193 L300.343501,204.405807 Z M275.279842,215.532193 L300.775267,211.334396 L275.279842,215.532193 Z M275.362792,208.508345 L299.794755,218.155023 L275.362792,208.508345 Z M296.425709,226.520982 L276.696373,207.534574 L296.425709,226.520982 Z M296.142829,227.00575 L269.75835,219.492899 L296.142829,227.00575 Z M269.75835,219.492899 L292.00171,232.590112 L269.75835,219.492899 Z M274.361011,214.164681 L286.841795,237.179535 L274.361011,214.164681 Z M278.86158,241.442956 L276.009377,214.270526 L278.86158,241.442956 Z M278.334103,241.633476 L262.971339,218.993313 L278.334103,241.633476 Z M262.971339,218.993313 L271.553473,243.25925 L262.971339,218.993313 Z M269.937012,217.856541 L264.634593,243.470939 L269.937012,217.856541 Z M255.769578,241.63136 L271.132342,218.993313 L255.769578,241.63136 Z M255.242102,241.440839 L258.094305,214.270526 L255.242102,241.440839 Z M258.094305,214.270526 L248.997456,238.348059 L258.094305,214.270526 Z M264.16667,217.854424 L243.563168,234.082521 L264.16667,217.854424 Z M237.960853,227.003633 L264.347458,219.490782 L237.960853,227.003633 Z M237.677972,226.518865 L257.409436,207.532457 L237.677972,226.518865 Z M257.409436,207.532457 L234.885323,220.15972 L257.409436,207.532457 Z M259.744797,214.162564 L233.4773,213.413184 L259.744797,214.162564 Z M233.764434,204.405807 L258.825967,215.532193 L233.764434,204.405807 Z M233.860146,203.853298 L261.237897,201.93116 L233.860146,203.853298 Z M261.237897,201.93116 L235.827549,197.195672 L261.237897,201.93116 Z M245.143472,184.411759 L257.156332,208.963476 L245.143472,184.411759 Z M245.575237,184.04977 L267.784566,200.089464 L245.575237,184.04977 Z M267.784566,200.089464 L251.381737,180.20761 L267.784566,200.089464 Z M261.629251,203.531531 L257.807171,177.648288 L261.629251,203.531531 Z M266.772151,176.373918 L260.117009,202.868943 L266.772151,176.373918 Z M267.337912,176.373918 L273.990927,202.868943 L267.337912,176.373918 Z M273.990927,202.868943 L274.2653,177.140233 L273.990927,202.868943 Z M267.055031,201.564938 L280.843872,179.29523 L267.055031,201.564938 Z M258.743017,208.504111 L239.105138,191.126541 L258.743017,208.504111 Z M272.478685,203.531531 L297.423236,195.292586 L272.478685,203.531531 Z M855.965948,166.172614 C882.337665,166.172614 903.715367,187.449499 903.715367,213.696848 C903.715367,239.944196 882.337665,261.221082 855.965948,261.221082 C829.596358,261.221082 808.218656,239.944196 808.218656,213.696848 C808.218656,187.449499 829.596358,166.172614 855.965948,166.172614 Z M855.965948,206.793662 C859.798663,206.793662 862.901843,209.884325 862.901843,213.696848 C862.901843,217.511488 859.798663,220.602151 855.965948,220.602151 C852.133233,220.602151 849.030052,217.511488 849.030052,213.696848 C849.030052,209.884325 852.133233,206.793662 855.965948,206.793662 Z M855.965948,205.396513 C860.570736,205.396513 864.303486,209.113776 864.303486,213.696848 C864.303486,218.27992 860.570736,221.995066 855.965948,221.995066 C851.36116,221.995066 847.626283,218.27992 847.626283,213.696848 C847.626283,209.113776 851.36116,205.396513 855.965948,205.396513 Z M855.965948,199.903177 C863.620743,199.903177 869.824977,206.078152 869.824977,213.696848 C869.824977,221.315543 863.620743,227.492635 855.965948,227.492635 C848.311152,227.492635 842.106918,221.315543 842.106918,213.696848 C842.106918,206.078152 848.311152,199.903177 855.965948,199.903177 Z M855.965948,196.715137 C865.388216,196.715137 873.028123,204.316898 873.028123,213.696848 C873.028123,223.074681 865.388216,230.678558 855.965948,230.678558 C846.541553,230.678558 838.901645,223.074681 838.901645,213.696848 C838.901645,204.316898 846.541553,196.715137 855.965948,196.715137 Z M855.965948,191.759492 C868.138327,191.759492 878.009377,201.579756 878.009377,213.696848 C878.009377,225.811823 868.138327,235.63632 855.965948,235.63632 C843.791441,235.63632 833.922519,225.811823 833.922519,213.696848 C833.922519,201.579756 843.791441,191.759492 855.965948,191.759492 Z M855.965948,171.083804 C879.613076,171.083804 898.783032,190.161238 898.783032,213.696848 C898.783032,237.23034 879.613076,256.312008 855.965948,256.312008 C832.320946,256.312008 813.15099,237.23034 813.15099,213.696848 C813.15099,190.161238 832.320946,171.083804 855.965948,171.083804 Z M855.965948,180.103883 C874.604173,180.103883 889.718087,195.144403 889.718087,213.696848 C889.718087,232.249293 874.604173,247.289813 855.965948,247.289813 C837.323469,247.289813 822.213809,232.249293 822.213809,213.696848 C822.213809,195.144403 837.323469,180.103883 855.965948,180.103883 Z M877.445742,187.783968 L855.234286,203.823662 L877.445742,187.783968 Z M877.877507,188.14384 L865.864647,212.699792 L877.877507,188.14384 Z M865.864647,212.699792 L882.682226,193.171459 L865.864647,212.699792 Z M889.158706,207.587496 L861.780955,205.665358 L889.158706,207.587496 Z M889.256545,208.137888 L864.190759,219.264275 L889.256545,208.137888 Z M864.190759,219.264275 L889.68831,215.066477 L864.190759,219.264275 Z M864.275836,212.240426 L888.705672,221.887104 L864.275836,212.240426 Z M885.338753,230.253063 L865.609416,211.266655 L885.338753,230.253063 Z M885.057999,230.737831 L858.669267,223.22498 L885.057999,230.737831 Z M858.669267,223.22498 L880.914753,236.322193 L858.669267,223.22498 Z M863.269801,217.896762 L875.752711,240.911616 L863.269801,217.896762 Z M867.776751,245.175037 L864.92242,218.002607 L867.776751,245.175037 Z M867.24502,245.365558 L851.882256,222.725394 L867.24502,245.365558 Z M851.882256,222.725394 L860.466517,246.991331 L851.882256,222.725394 Z M858.847928,221.588623 L853.547636,247.20302 L858.847928,221.588623 Z M844.680495,245.363441 L860.045386,222.725394 L844.680495,245.363441 Z M844.155145,245.172921 L847.005222,218.002607 L844.155145,245.172921 Z M847.005222,218.002607 L837.910499,242.080141 L847.005222,218.002607 Z M853.077587,221.586506 L832.476211,237.814603 L853.077587,221.586506 Z M826.873897,230.735715 L853.256248,223.222863 L826.873897,230.735715 Z M826.588889,230.250946 L846.322479,211.264538 L826.588889,230.250946 Z M846.322479,211.264538 L823.798366,223.891801 L846.322479,211.264538 Z M848.655714,217.894645 L822.390343,217.145265 L848.655714,217.894645 Z M822.675351,208.137888 L847.73901,219.264275 L822.675351,208.137888 Z M822.773189,207.58538 L850.146687,205.663241 L822.773189,207.58538 Z M850.146687,205.663241 L824.740593,200.927753 L850.146687,205.663241 Z M834.056515,188.14384 L846.067249,212.699792 L834.056515,188.14384 Z M834.486154,187.781851 L856.697609,203.821545 L834.486154,187.781851 Z M856.697609,203.821545 L840.292653,183.939692 L856.697609,203.821545 Z M850.542294,207.263612 L846.720214,181.380369 L850.542294,207.263612 Z M855.683067,180.108117 L849.030052,206.601025 L855.683067,180.108117 Z M856.248829,180.108117 L862.901843,206.601025 L856.248829,180.108117 Z M862.901843,206.601025 L863.176216,180.872315 L862.901843,206.601025 Z M855.965948,205.299136 L869.754789,183.027311 L855.965948,205.299136 Z M847.65606,212.236192 L828.018181,194.858623 L847.65606,212.236192 Z M861.391728,207.263612 L886.33628,199.024667 L861.391728,207.263612 Z M254.204163,30.064902 C254.34454,32.8083945 252.745094,36.6018656 249.293098,39.4194494 C237.033515,49.4365841 185.921431,76.0438043 137.463747,99.259763 C96.8139965,118.733056 58.0274307,136.165665 45.5998203,136.070793 L254.204163,30.064902 Z M117.902437,86.1710174 C117.902437,86.1710174 126.103852,93.2308535 136.198228,91.2134551 C143.480812,89.75915 168.333905,77.860098 193.318869,65.1650944 C208.664617,57.3664629 223.944431,49.6398058 232.988107,43.1324786 C238.050184,39.4914237 238.092722,36.8537758 238.622326,34.8617801 L117.902437,86.1710174 Z M123.489863,83.2581735 C123.489863,83.2581735 124.176859,87.5427637 136.264162,86.0694066 C148.351465,84.5960495 223.831704,44.580433 227.036977,42.1248378 C230.24225,39.6692427 232.726496,36.7691001 232.726496,36.7691001 L123.489863,83.2581735 Z M33.6528944,147.567247 C33.6528944,147.567247 86.6707012,87.8878172 216.663974,42.2243318 C346.65512,-3.43915362 442.991966,-0.100814342 472.345628,0.142628281 C479.081593,0.199784375 496.222465,1.84460975 502.747864,6.65418922 C536.153315,31.26518 572.8874,66.805686 596.759983,88.4911315 L33.6528944,147.567247 Z M24.0349492,163.769941 L28.3504757,163.769941 L28.3504757,148.181146 L24.0349492,148.181146 L24.0349492,163.769941 Z M28.3504757,147.567247 L38.9553132,147.567247 L41.2991822,149.887361 L57.0043808,149.887361 C69.6659528,149.887361 68.0984106,164.1658 56.4705232,164.38384 L28.3504757,164.38384 L28.3504757,147.567247 Z M41.3353399,153.731638 L56.2854809,153.731638 C58.6250961,153.731638 61.7048804,155.444203 61.7048804,157.53781 C61.7048804,159.6293 58.6208422,161.341866 56.2854809,161.341866 L41.3353399,161.341866 C38.9999786,161.341866 33.8187944,159.6293 33.8187944,157.53781 C33.8187944,155.444203 38.9935978,153.731638 41.3353399,153.731638 Z M267.127347,244.169514 C286.129276,244.169514 301.534578,228.836862 301.534578,209.922429 C301.534578,191.010112 286.129276,175.677461 267.127347,175.677461 C248.123291,175.677461 232.717988,191.010112 232.717988,209.922429 C232.717988,228.836862 248.123291,244.169514 267.127347,244.169514 Z M267.127347,252.76198 C290.897837,252.76198 310.169885,233.580818 310.169885,209.922429 C310.169885,186.26404 290.897837,167.084995 267.127347,167.084995 C243.35473,167.084995 224.084808,186.26404 224.084808,209.922429 C224.084808,233.580818 243.35473,252.76198 267.127347,252.76198 Z M267.127347,256.445372 C292.94181,256.445372 313.868604,235.615151 313.868604,209.922429 C313.868604,184.229706 292.94181,163.401602 267.127347,163.401602 C241.310757,163.401602 220.386089,184.229706 220.386089,209.922429 C220.386089,235.615151 241.310757,256.445372 267.127347,256.445372 Z M148.287657,249.9825 C166.766363,256.752322 178.141147,261.875201 197.78328,262.340918 L148.287657,249.9825 Z M151.867268,240.333705 C151.867268,240.333705 176.909659,249.387653 181.59527,250.369891 C186.283008,251.352129 190.441142,251.002842 190.441142,251.002842 L151.867268,240.333705 Z M139.390739,220.174538 L137.04687,232.520255 L156.299776,223.699164 L139.390739,220.174538 Z M29.1097872,202.68054 L29.3224795,212.869143 C29.3224795,212.869143 39.7486554,213.233248 45.9146049,214.952165 C52.0826813,216.668965 54.3095695,220.650839 58.2550115,223.108551 C62.2025804,225.56203 146.754146,254.112557 146.754146,254.112557 C148.72793,248.792806 150.699588,243.475173 152.673372,238.155422 C125.546598,228.360561 98.4155694,218.563583 70.2891412,209.43131 C63.5191456,207.233975 63.4021649,208.453305 56.9682231,208.694631 C48.201047,204.581509 38.8638555,203.190711 29.1097872,202.68054 Z M342.984051,252.499485 L641.302002,251.764923 C655.42477,250.873712 664.530126,246.652628 670.021841,240.033106 L342.984051,252.499485 Z M25.9300374,175.749435 C25.9300374,175.749435 30.8219601,189.299663 42.4158167,195.684211 C53.386485,201.723705 100.814738,212.46905 182.17592,228.999863 L25.9300374,175.749435 Z M193.720857,172.658772 C187.980292,183.838081 184.740989,196.503448 184.740989,209.922429 C184.740989,255.209107 221.626085,291.920255 267.127347,291.920255 C312.626481,291.920255 349.513705,255.209107 349.513705,209.922429 C349.513705,197.576712 346.772101,185.870298 341.861036,175.368394 L193.720857,172.658772 Z M187.588938,174.737561 C182.92885,185.349542 180.055378,197.599998 180.055378,209.922429 C180.055378,257.783248 219.03762,296.585886 267.127347,296.585886 C315.214946,296.585886 354.199316,257.783248 354.199316,209.922429 C354.199316,199.295629 351.804401,188.099385 348.288597,178.691916 L187.588938,174.737561 Z M21.5826071,162.372792 C19.5046034,160.230497 14.0639347,148.816213 12.2454156,148.187496 C11.4031541,147.895365 7.91925444,148.075301 5.74553925,148.081652 C2.84016259,148.088002 1.66184731,151.049535 1.0195166,154.726577 C-0.243875597,161.991752 -0.0907371494,173.143541 0.207032055,176.841752 C0.562228177,181.278758 -0.339587127,181.947696 3.81854712,181.683084 C7.28543142,181.462928 13.1918963,181.054367 14.7743269,180.73895 C17.0586421,180.285935 21.6272724,175.01699 21.6272724,175.01699 L21.5826071,162.372792 Z M8.3616544,168.596456 L28.1377834,168.437689 L8.3616544,168.596456 Z M204.604321,161.147112 C184.541058,160.920604 100.57865,160.368095 68.5344298,161.297411 C57.4148769,171.153662 33.6847983,170.313256 21.5826071,162.372792 C13.9958731,163.403719 8.46161978,167.531659 8.3616544,168.596456 C8.03836212,172.021588 20.5446687,175.537746 29.8499563,176.149528 C37.9662941,176.685102 149.083126,171.179064 183.690289,169.434745 C187.429419,169.248459 221.347458,167.140034 221.402758,163.333861 C221.445297,160.247432 210.108798,161.208501 204.604321,161.147112 Z"/>
  </g>
</svg>
